<svg enable-background="new 0 0 100 100" viewBox="0 0 100 100" xmlns="http://www.w3.org/2000/svg"><path d="m60.1 88.7c-.1 0-.3 0-.4 0-2.1-.4-4-1.8-5-3.7-.1-.1-.1-.2-.2-.3-.1-.2-.9-1.7-3.2-1.8h-.1c-.8 0-1.5 0-2.3 0h-.1c-2.4 0-3.2 1.7-3.2 1.8-.1.1-.1.2-.2.3-1 1.9-2.9 3.3-5 3.7-.3.1-.6.1-.9 0-1.9-.5-3.9-1.2-5.7-2.1-.3-.1-.5-.3-.7-.5-1.3-1.7-1.9-4-1.4-6.1 0-.1 0-.2.1-.4 0-.2.4-1.9-1.3-3.4 0 0-.1-.1-.1-.1-.6-.5-1.2-1-1.8-1.5-.8-.6-1.6-.9-2.5-.9-.7 0-1.2.2-1.2.2-.1.1-.2.1-.4.1-2 .8-4.4.7-6.3-.4-.3-.1-.5-.3-.6-.6-1.1-1.6-2.1-3.3-3-5.1-.1-.3-.2-.5-.2-.8 0-2.2 1.1-4.4 2.8-5.7.1-.1.2-.2.3-.2.1-.1 1.5-1.2 1.2-3.5 0 0 0 0 0-.1-.2-.7-.3-1.5-.4-2.3 0-.1 0-.1 0-.1-.4-2.3-2.3-2.8-2.3-2.8-.1 0-.2-.1-.4-.1-2.1-.7-3.9-2.4-4.6-4.5-.1-.3-.1-.5-.1-.8.2-1.8.5-3.7 1-5.6.1-.3.2-.5.4-.7 1.5-1.8 3.7-2.8 5.9-2.7h.4c.5 0 2.1-.1 3.1-1.9 0 0 0-.1.1-.1.3-.6.7-1.3 1.2-2 0 0 0-.1.1-.1 1.1-2 .2-3.5.1-3.7-.1-.1-.1-.2-.2-.3-1.2-2-1.5-4.4-.6-6.6.1-.2.2-.5.4-.7 1.3-1.3 2.7-2.5 4.2-3.5.2-.2.5-.3.7-.3 2.3-.5 4.7.2 6.4 1.7.1.1.2.1.3.2 0 0 .9.8 2.2.8.4 0 .9-.1 1.4-.2.8-.3 1.6-.6 2.3-.8 2.1-.8 2.4-2.6 2.4-2.8 0-.1 0-.2.1-.3.3-2.3 1.7-4.4 3.8-5.5.2-.1.5-.2.7-.2 2-.1 3.4-.1 5.4 0 .3 0 .5.1.7.2 2.1 1.1 3.5 3.1 3.8 5.4 0 .1.1.2.1.4s.3 1.9 2.4 2.8c.8.2 1.6.5 2.3.8.5.2 1 .3 1.4.3 1.4 0 2.2-.8 2.2-.8.1-.1.2-.2.3-.2 1.7-1.5 4.1-2.2 6.4-1.7.3.1.5.2.7.3 1.5 1.1 2.9 2.3 4.2 3.5.2.2.3.4.4.7.8 2.2.6 4.6-.6 6.6 0 .1-.1.2-.2.3s-1 1.7.1 3.7c0 0 0 .1.1.1.4.7.8 1.3 1.2 2 0 0 0 .1.1.1 1 1.7 2.6 1.9 3.1 1.9h.4c2.2-.1 4.5.9 5.9 2.7.2.2.3.5.4.7.5 1.8.8 3.7 1 5.6 0 .3 0 .5-.1.8-.8 2.2-2.5 3.8-4.6 4.5-.1.1-.2.1-.4.1s-1.9.6-2.3 2.9v.1c-.1.8-.2 1.6-.4 2.3v.1c-.3 2 1.2 3.1 1.2 3.1.1.1.2.2.3.3 1.7 1.4 2.8 3.5 2.8 5.7 0 .3-.1.6-.2.8-.8 1.7-1.8 3.5-3 5.1-.2.2-.4.4-.6.6-1.1.6-2.3.9-3.6.9-.9 0-1.9-.2-2.7-.5-.1 0-.2-.1-.4-.1s-.5-.2-1.2-.2c-.9 0-1.7.3-2.4.9 0 0 0 0-.1 0-.5.5-1.1 1-1.8 1.5 0 0-.1 0-.1.1-1.5 1.3-1.5 2.7-1.4 3.3.1.2.1.4.1.6.4 2.1-.1 4.3-1.5 5.9-.2.2-.4.4-.7.5-1.8.8-3.8 1.5-5.7 2.1.1.2-.1.2-.2.2zm-24.4-5.3c1.4.6 2.8 1.1 4.2 1.5 1-.3 1.8-1 2.2-1.9.1-.1.1-.2.2-.4.8-1.4 2.8-3.4 6.2-3.5h.1.1 2.3.1.1c3.3.1 5.4 2.1 6.2 3.5.1.1.2.2.2.4.4.9 1.2 1.6 2.2 1.9 1.4-.4 2.9-.9 4.2-1.5.5-.9.7-1.9.4-2.9 0-.1-.1-.3-.1-.4-.3-1.6 0-4.4 2.5-6.7 0 0 .1-.1.1-.1s.1-.1.1-.1c.7-.5 1.2-1 1.8-1.5 0 0 .1-.1.1-.1s.1 0 .1-.1c1.4-1.1 3-1.7 4.7-1.7 1 0 1.8.2 2.3.4.1 0 .3.1.4.1.5.2 1 .3 1.5.3.5 0 1-.1 1.4-.3.8-1.2 1.6-2.5 2.2-3.8-.1-1-.7-2-1.5-2.6-.1-.1-.2-.2-.3-.3-1.3-1.1-2.9-3.4-2.4-6.7v-.1-.1c.2-.7.3-1.5.4-2.3 0-.1 0-.1 0-.2v-.1c.7-3.3 3-4.9 4.5-5.5.1-.1.2-.1.4-.2 1-.3 1.9-1 2.4-2-.2-1.4-.4-2.8-.7-4.1-.8-.8-1.8-1.2-2.9-1.1-.2 0-.3 0-.5 0-1.1 0-4.1-.4-6.1-3.6 0 0-.1-.1-.1-.1-.4-.8-.8-1.4-1.2-2.1 0 0-.1-.1-.1-.1s0-.1-.1-.1c-1.6-3-.9-5.7-.1-7.1.1-.1.1-.2.2-.4.6-.9.8-2 .5-3.1-1-.9-2-1.8-3.1-2.6-1.1-.1-2.2.3-3 1-.1.1-.2.2-.4.3-.1.7-1.6 1.7-3.9 1.7-.8 0-1.7-.1-2.5-.4h-.1-.1c-.7-.3-1.5-.6-2.2-.8h-.1s0 0-.1 0c-3.1-1.2-4.4-3.8-4.7-5.4 0-.1-.1-.3-.1-.4-.1-1.1-.7-2.1-1.6-2.7-1.5-.1-2.5-.1-4 0-.9.6-1.5 1.6-1.6 2.7 0 .1 0 .3-.1.4-.3 1.6-1.5 4.2-4.7 5.4 0 0 0 0-.1 0h-.1c-.7.2-1.5.5-2.2.8h-.1-.1c-.8.3-1.6.4-2.5.4-2.3 0-3.8-1-4.5-1.6-.1-.1-.2-.2-.4-.3-.8-.8-1.9-1.2-3-1-1.1.8-2.1 1.7-3.1 2.6-.3 1.1-.1 2.2.5 3.1.1.1.1.2.2.4.8 1.4 1.5 4.2-.1 7.1v.1s-.1.1-.1.1c-.4.7-.8 1.3-1.2 2 0 .1-.1.1-.1.2-2 3.2-5 3.6-6.1 3.6-.1 0-.3 0-.4 0-1.1-.1-2.1.3-2.9 1.1-.3 1.4-.6 2.8-.7 4.1.5 1 1.3 1.7 2.4 2 .1 0 .3.1.4.2 1.5.6 3.8 2.2 4.5 5.5v.1.2c.1.8.2 1.5.4 2.3v.1.1c.5 3.3-1.1 5.6-2.4 6.7-.1.1-.2.2-.3.3-.9.6-1.4 1.6-1.5 2.6.7 1.3 1.4 2.6 2.2 3.8.9.4 2 .4 3-.1.1-.1.3-.1.4-.1.5-.2 1.3-.4 2.3-.4 1.7 0 3.3.6 4.7 1.7h.1c.1 0 .1.1.2.1.5.5 1.1 1 1.8 1.5 0 0 .1.1.1.1s.1.1.1.1c2.5 2.2 2.8 5.1 2.5 6.7 0 .1 0 .3-.1.4-.4 1.1-.2 2.1.3 3zm14.3-13.2c-10.8 0-19.5-8.8-19.5-19.5s8.7-19.6 19.5-19.6 19.5 8.8 19.5 19.5-8.7 19.6-19.5 19.6zm0-35.4c-8.7 0-15.9 7.1-15.9 15.9s7.2 15.8 15.9 15.8 15.9-7.1 15.9-15.9-7.2-15.8-15.9-15.8z" stroke="#B3B3B3" fill="#B3B3B3"/></svg>